<?xml version="1.0" encoding="UTF-8" standalone="no"?>
<!-- Generator: Adobe Illustrator 19.0.0, SVG Export Plug-In . SVG Version: 6.00 Build 0)  -->

<svg
   xmlns:dc="http://purl.org/dc/elements/1.1/"
   xmlns:cc="http://creativecommons.org/ns#"
   xmlns:rdf="http://www.w3.org/1999/02/22-rdf-syntax-ns#"
   xmlns:svg="http://www.w3.org/2000/svg"
   xmlns="http://www.w3.org/2000/svg"
   xmlns:sodipodi="http://sodipodi.sourceforge.net/DTD/sodipodi-0.dtd"
   xmlns:inkscape="http://www.inkscape.org/namespaces/inkscape"
   version="1.1"
   id="Capa_1"
   x="0px"
   y="0px"
   viewBox="0 0 447.096 447.096"
   style="enable-background:new 0 0 447.096 447.096;"
   xml:space="preserve"
   sodipodi:docname="zoom-out.svg"
   inkscape:version="0.92.1 r15371"><metadata
     id="metadata55"><rdf:RDF><cc:Work
         rdf:about=""><dc:format>image/svg+xml</dc:format><dc:type
           rdf:resource="http://purl.org/dc/dcmitype/StillImage" /></cc:Work></rdf:RDF></metadata><defs
     id="defs53" /><sodipodi:namedview
     pagecolor="#ffffff"
     bordercolor="#666666"
     borderopacity="1"
     objecttolerance="10"
     gridtolerance="10"
     guidetolerance="10"
     inkscape:pageopacity="0"
     inkscape:pageshadow="2"
     inkscape:window-width="1280"
     inkscape:window-height="962"
     id="namedview51"
     showgrid="false"
     inkscape:zoom="1.0557017"
     inkscape:cx="272.26339"
     inkscape:cy="196.95259"
     inkscape:window-x="-8"
     inkscape:window-y="-8"
     inkscape:window-maximized="1"
     inkscape:current-layer="Capa_1" /><g
     id="g6"><g
       id="g4"><path
         d="m 244.257,182.457 c -66.84788,-0.0293 -42.49148,0 -104.2,0 -5.5,0 -10,4.5 -10,10 0,5.5 4.5,10 10,10 37.23905,0 66.87539,0 104.2,0 5.5,0 10,-4.5 10,-10 0,-5.5 -4.4,-10 -10,-10 z"
         id="path2"
         inkscape:connector-curvature="0"
         sodipodi:nodetypes="ccsccsc" /></g></g><g
     id="g12"><g
       id="g10"><path
         d="M299.157,84.457c-59.2-59.1-155.5-59.1-214.6,0c-59.1,59.1-59.1,155.4,0,214.6c59.3,59.1,155.3,59.1,214.6,0    C358.257,239.957,358.257,143.657,299.157,84.457z M284.957,284.957c-51.4,51.3-135,51.4-186.3,0c-51.4-51.4-51.4-135,0-186.3    c51.5-51.3,134.8-51.3,186.3,0C336.357,149.957,336.357,233.557,284.957,284.957z"
         id="path8" /></g></g><g
     id="g18"><g
       id="g16"><path
         d="M436.357,384.157c-0.1-0.1-0.2-0.2-0.3-0.3l-85-85.2c59-87.9,35.6-207.1-52.3-266.1s-207.1-35.6-266.1,52.3    s-35.6,207.1,52.3,266.1c27.8,18.7,60,29.7,93.4,32.1c4.5,0.3,9,0.5,13.4,0.5c38.1,0,75.3-11.3,106.9-32.5l85,85    c14.4,14.6,37.8,14.7,52.3,0.4C450.557,422.057,450.657,398.657,436.357,384.157z M293.857,329.957c-76.4,56.5-184,40.3-240.4-36    c-56.4-76.3-40.3-184,36.1-240.4c76.4-56.4,184-40.3,240.4,36.1c44.9,60.8,44.9,143.8-0.2,204.6    C319.657,307.757,307.557,319.857,293.857,329.957z M421.957,421.957c-3.2,3.2-7.5,5-12.1,5c-4.5,0-8.8-1.8-12-5l-83-83    c4.3-3.6,8.5-7.4,12.6-11.5c4.1-4.1,7.9-8.3,11.5-12.6l83,83C428.557,404.457,428.557,415.257,421.957,421.957z"
         id="path14" /></g></g><g
     id="g20" /><g
     id="g22" /><g
     id="g24" /><g
     id="g26" /><g
     id="g28" /><g
     id="g30" /><g
     id="g32" /><g
     id="g34" /><g
     id="g36" /><g
     id="g38" /><g
     id="g40" /><g
     id="g42" /><g
     id="g44" /><g
     id="g46" /><g
     id="g48" /></svg>